<svg xmlns="http://www.w3.org/2000/svg" viewBox="0 0 531.59 523.33">
  <g id="Layer_2" data-name="Layer 2">
    <g id="Layer_10" data-name="Layer 10">
      <g>
        <ellipse cx="265.79" cy="261.67" rx="245.79" ry="241.67" style="fill: #0ab37d"/>
        <path d="M265.79,20c135.75,0,245.8,108.2,245.8,241.67s-110,241.66-245.8,241.66S20,395.13,20,261.67,130.05,20,265.79,20m0-20A267.92,267.92,0,0,0,162.44,20.52,265.2,265.2,0,0,0,78,76.52a260.53,260.53,0,0,0-57,83.18,258.75,258.75,0,0,0,0,203.94,260.6,260.6,0,0,0,57,83.17,269.36,269.36,0,0,0,291.18,56,265.2,265.2,0,0,0,84.47-56,260.57,260.57,0,0,0,57-83.17,258.63,258.63,0,0,0,0-203.94,260.5,260.5,0,0,0-57-83.18,265.2,265.2,0,0,0-84.47-56A268,268,0,0,0,265.79,0Z" style="fill: #60c199"/>
      </g>
    </g>
    <g id="M_White_copy" data-name="M White copy">
      <polygon points="282.03 217.81 345 236.18 355.82 258.82 379.34 207.68 358.77 93.9 332.07 156.21 180.66 228.97 43.86 185.62 72.64 272.6 156.85 321.46 282.03 217.81" style="fill: #344073"/>
    </g>
    <g id="D_copy_2" data-name="D copy 2">
      <polygon points="165.4 160 186.15 165.4 279.48 124.33 286.3 108.25 165.4 160" style="fill: #344073"/>
    </g>
    <g id="M_Dark_copy" data-name="M Dark copy">
      <polygon points="117.48 339.5 122.29 411.75 191.23 443.25 268.71 363.92 271.19 479.78 355.28 518.2 489.88 332.33 491.83 264.44 354.78 437.12 271.19 402.73 345.78 322.32 284.41 332.24 266.5 294.69 187.55 368.19 117.48 339.5" style="fill: #344073"/>
    </g>
    <g id="M_White" data-name="M White">
      <polygon points="117.48 339.5 282.03 203.25 345 221.61 361.1 255.31 419.14 243.24 491.83 264.44 354.78 437.12 271.19 402.73 345.78 322.32 284.41 332.24 266.5 294.69 187.55 368.19 117.48 339.5" style="fill: #0ab37d"/>
    </g>
  </g>
</svg>
